<svg enable-background="new 0 0 1280 110" height="110" viewBox="0 0 1280 110" width="1280" xmlns="http://www.w3.org/2000/svg"><g fill="#fff"><path d="m1280 .378c-68.866 18.908-193.274 57.919-404.525 68.525-278.323 13.973-240.92-41.919-462.038-57.536-175.202-12.374-327.597 37.688-413.437 72.098v22.583l1280 3.804z" opacity=".3"/><path d="m1280 11.378c-68.866 18.908-193.274 57.919-404.525 68.525-278.323 13.973-240.92-41.919-462.038-57.536-175.202-12.374-327.597 37.688-413.437 72.098v22.583l1280 3.804z" opacity=".5"/><path d="m1280 22.378c-68.866 18.908-193.274 57.919-404.525 68.525-278.323 13.973-240.92-41.919-462.038-57.536-175.202-12.374-327.597 37.688-413.437 72.098v22.583l1280 3.804z"/></g></svg>